<svg id="Layer_1" data-name="Layer 1" xmlns="http://www.w3.org/2000/svg" xmlns:xlink="http://www.w3.org/1999/xlink" viewBox="0 0 411.13 411.13"><defs><style>.cls-1,.cls-3{fill:#f16278;}.cls-2{fill:#fec00f;}.cls-3{font-size:23.25px;font-family:Futura-Medium, Futura;}.cls-4{letter-spacing:-0.01em;}.cls-5{letter-spacing:0em;}.cls-6,.cls-7,.cls-8{fill:none;stroke-miterlimit:10;}.cls-6{stroke-width:5px;stroke:url(#linear-gradient);}.cls-7{stroke-width:10px;stroke:url(#linear-gradient-2);}.cls-8{stroke-width:7px;stroke:url(#linear-gradient-3);}</style><linearGradient id="linear-gradient" x1="118.8" y1="233.35" x2="292.33" y2="233.35" gradientUnits="userSpaceOnUse"><stop offset="0" stop-color="#f6f086"/><stop offset="0.18" stop-color="#f6e489"/><stop offset="0.5" stop-color="#f5c492"/><stop offset="0.94" stop-color="#f390a1"/><stop offset="1" stop-color="#f388a3"/></linearGradient><linearGradient id="linear-gradient-2" x1="72.41" y1="129.16" x2="355.63" y2="292.68" gradientTransform="translate(211.83 -89.56) rotate(45)" xlink:href="#linear-gradient"/><linearGradient id="linear-gradient-3" x1="59.85" y1="121.91" x2="368.19" y2="299.93" gradientTransform="translate(211.83 -89.56) rotate(45)" xlink:href="#linear-gradient"/></defs><title>logo</title><path class="cls-1" d="M229.2,166.81a10.06,10.06,0,0,1,1,.51,2.72,2.72,0,0,1,1.28,2.39q0,4,0,7.95v1l.82-.35a11.21,11.21,0,0,1,16,10.05c.07,3.9,0,7.79,0,11.68a2.75,2.75,0,0,1-2.83,3,2.7,2.7,0,0,1-2.83-3c0-3.84,0-7.68,0-11.52a5.59,5.59,0,1,0-11.18.1c0,3.84,0,7.68,0,11.51a2.7,2.7,0,0,1-2.28,2.82,2.77,2.77,0,0,1-3.24-1.92,5.65,5.65,0,0,1-.16-1.6c0-9.62,0-19.25,0-28.87,0-1.84.51-3.15,2.32-3.78Z" transform="translate(-8.45 -5.36)"/><path class="cls-1" d="M105.06,212.25c-.19-.1-.37-.21-.56-.3A2.72,2.72,0,0,1,103,209a2.5,2.5,0,0,1,2-2.23c.7-.11.77-.44.77-1q0-12.74,0-25.47a2.81,2.81,0,0,1,3.78-2.89,2.73,2.73,0,0,1,1.76,2.74v26.2a5.52,5.52,0,0,1-4.37,5.75,1.11,1.11,0,0,0-.27.17Z" transform="translate(-8.45 -5.36)"/><path class="cls-1" d="M157,166.81l.64.31a2.61,2.61,0,0,1,1.64,2.48q0,15.38,0,30.75a2.69,2.69,0,0,1-2.79,2.67,2.78,2.78,0,0,1-2.87-2.61c0-.24,0-.48,0-.73,0-9.65,0-19.31,0-29,0-1.86.47-3.21,2.27-3.91Z" transform="translate(-8.45 -5.36)"/><path class="cls-2" d="M108.79,166.81a8.22,8.22,0,0,1,1.12.39c1.58.8,1.56,2.25,1.49,3.71a2.79,2.79,0,0,1-1.84,2.53,2.73,2.73,0,0,1-3.57-1.87,6.74,6.74,0,0,1,0-2.72,2.41,2.41,0,0,1,2-1.86c.21-.05.41-.12.61-.18Z" transform="translate(-8.45 -5.36)"/><path class="cls-2" d="M169.48,166.81c2,1,2.63,2.14,2.22,4.43a2.8,2.8,0,0,1-2.89,2.31,2.75,2.75,0,0,1-2.59-2.63c0-.19,0-.38,0-.56a3.12,3.12,0,0,1,2.13-3.55Z" transform="translate(-8.45 -5.36)"/><path class="cls-2" d="M260.84,166.81c2.55.87,2.56,2.95,2,5a2.58,2.58,0,0,1-2.86,1.76,2.72,2.72,0,0,1-2.43-2.53c0-.51,0-1,0-1.53,0-1.43,1-2.11,2.12-2.66Z" transform="translate(-8.45 -5.36)"/><path class="cls-1" d="M276.12,192a6.59,6.59,0,0,0,2.09,3.82,8.3,8.3,0,0,0,10.26.47,2.64,2.64,0,0,1,4.2,1.08,2.13,2.13,0,0,1-.67,2.42,12.94,12.94,0,0,1-13.19,2.57c-4.79-1.61-7.57-5.18-8.37-10.14a12.8,12.8,0,0,1,9.86-14.7,12.36,12.36,0,0,1,14.95,11.34c.13,2.21-.75,3.14-3,3.14H276.12Zm-.16-4.39h14.45c-.45-2.72-4.67-5.66-7.78-5.47C279.31,182.29,276.08,184.93,276,187.56Z" transform="translate(-8.45 -5.36)"/><path class="cls-1" d="M132.16,203.27a12.82,12.82,0,0,1-12.33-11.22A13,13,0,0,1,124,180.42a11.74,11.74,0,0,1,17.5,1.53c5.9,7.48,2.29,18.55-6.65,20.92A24.58,24.58,0,0,1,132.16,203.27Zm-6.9-13c.07.61.12,1.23.23,1.84a6.32,6.32,0,0,0,5.35,5.42,6.6,6.6,0,0,0,7.29-3.6,8.54,8.54,0,0,0,.7-5.2,6.84,6.84,0,0,0-8.46-5.66C127.15,183.87,125.31,186.49,125.26,190.24Z" transform="translate(-8.45 -5.36)"/><path class="cls-1" d="M308.94,178.73a10.65,10.65,0,0,1,16.14,9q0,6.21,0,12.41a2.58,2.58,0,0,1-2.61,2.86,2.66,2.66,0,0,1-2.74-2.86c0-4.06,0-8.11,0-12.17a5.26,5.26,0,0,0-3.69-5,5.19,5.19,0,0,0-5.81,1.73,5.41,5.41,0,0,0-1.09,3.41q0,5.91,0,11.84a2.83,2.83,0,0,1-2.62,3,2.67,2.67,0,0,1-3-2.88c0-3.76,0-7.51,0-11.27v-8.44c0-1.61.59-2.61,1.79-3s2.34-.06,3.38,1.21C308.75,178.63,308.81,178.65,308.94,178.73Z" transform="translate(-8.45 -5.36)"/><path class="cls-1" d="M206.63,203c-5.61,0-11.25-4.79-12.11-11a13.16,13.16,0,0,1,21-12.13,2.85,2.85,0,0,1,.86,3.92,2.79,2.79,0,0,1-4,.51c-3.47-2.37-7.49-2.11-10.27.73a6.77,6.77,0,0,0-1.81,7.43,7.44,7.44,0,0,0,6.12,5,7.77,7.77,0,0,0,5.89-1.45,2.79,2.79,0,0,1,2.28-.59,2.57,2.57,0,0,1,2.2,2.1,2.75,2.75,0,0,1-1.21,2.89A14.45,14.45,0,0,1,206.63,203Z" transform="translate(-8.45 -5.36)"/><path class="cls-1" d="M257.57,190.09c0-3.35,0-6.7,0-10.05a2.71,2.71,0,0,1,3.55-2.67,2.64,2.64,0,0,1,2,2.58c0,1.57,0,3.14,0,4.71,0,5.19,0,10.37,0,15.56a2.75,2.75,0,0,1-4,2.52,2.69,2.69,0,0,1-1.48-2.59C257.58,196.8,257.57,193.44,257.57,190.09Z" transform="translate(-8.45 -5.36)"/><path class="cls-1" d="M166.21,190.09c0-3.35,0-6.7,0-10.05a2.71,2.71,0,0,1,3.63-2.64,2.67,2.67,0,0,1,1.88,2.72c0,2.54,0,5.08,0,7.62,0,4.16,0,8.33,0,12.49a2.75,2.75,0,0,1-4.19,2.43,2.66,2.66,0,0,1-1.33-2.51C166.22,196.79,166.21,193.44,166.21,190.09Z" transform="translate(-8.45 -5.36)"/><text class="cls-3" transform="translate(140.39 242.53)">PO<tspan class="cls-4" x="33.33" y="0">R</tspan><tspan x="47.12" y="0">T</tspan><tspan class="cls-5" x="58.34" y="0">F</tspan><tspan x="70.18" y="0">OLIO</tspan></text><rect class="cls-6" x="121.3" y="214.33" width="168.52" height="38.05"/><rect class="cls-7" x="85.51" y="82.41" width="257.02" height="257.02" transform="translate(-94.91 207.76) rotate(-45)"/><rect class="cls-8" x="72.16" y="69.06" width="283.71" height="283.71" transform="translate(-94.91 207.76) rotate(-45)"/></svg>